<svg width="10" height="14" viewBox="0 0 10 14" fill="none" xmlns="http://www.w3.org/2000/svg">
<path d="M4.32 13.604V12.436C2.96533 12.2227 1.71733 11.6093 0.576 10.596L2.064 8.788C2.896 9.51333 3.648 9.97733 4.32 10.18V7.796C3.2 7.508 2.37867 7.124 1.856 6.644C1.33333 6.15333 1.072 5.45467 1.072 4.548C1.072 3.63067 1.37067 2.87867 1.968 2.292C2.56533 1.69467 3.34933 1.33733 4.32 1.22V0.436H6.016V1.252C7.08267 1.40133 8.144 1.844 9.2 2.58L7.888 4.468C7.216 3.988 6.592 3.668 6.016 3.508V5.812C7.168 6.11067 8.016 6.51067 8.56 7.012C9.11467 7.51333 9.392 8.22267 9.392 9.14C9.392 10.0573 9.08267 10.8147 8.464 11.412C7.856 12.0093 7.04 12.3667 6.016 12.484V13.604H4.32ZM6.832 9.268C6.832 9.044 6.77333 8.85733 6.656 8.708C6.53867 8.55867 6.32533 8.42 6.016 8.292V10.26C6.56 10.0893 6.832 9.75867 6.832 9.268ZM4.32 3.444C3.86133 3.604 3.632 3.89733 3.632 4.324C3.632 4.75067 3.86133 5.076 4.32 5.3V3.444Z" fill="#23A6F0"/>
</svg>
