<svg width="20" height="20" viewBox="0 0 20 20" fill="none" xmlns="http://www.w3.org/2000/svg">
<path d="M19.1367 7.41927C19.079 7.24946 18.9729 7.10025 18.8314 6.99006C18.6899 6.87987 18.5193 6.81353 18.3405 6.79922L13.1114 6.38371L10.8485 1.3747C10.7765 1.21337 10.6593 1.07634 10.511 0.980156C10.3628 0.883971 10.1899 0.832739 10.0132 0.832642C9.83655 0.832545 9.6636 0.883587 9.51527 0.979609C9.36695 1.07563 9.24958 1.21253 9.17734 1.37378L6.91452 6.38371L1.68537 6.79922C1.50968 6.81314 1.34172 6.87738 1.20158 6.98425C1.06144 7.09113 0.955065 7.23612 0.895169 7.40187C0.835274 7.56762 0.8244 7.74712 0.863848 7.91889C0.903295 8.09066 0.991394 8.24743 1.11761 8.37044L4.98191 12.1375L3.61523 18.0555C3.57374 18.2347 3.58704 18.4221 3.65341 18.5936C3.71978 18.7651 3.83616 18.9127 3.98745 19.0172C4.13874 19.1217 4.31794 19.1783 4.50182 19.1797C4.68569 19.1811 4.86574 19.1272 5.0186 19.025L10.0129 15.6955L15.0073 19.025C15.1635 19.1288 15.3478 19.1822 15.5353 19.1781C15.7228 19.1739 15.9045 19.1125 16.056 19.002C16.2076 18.8916 16.3217 18.7373 16.3829 18.5601C16.4442 18.3828 16.4497 18.1911 16.3987 18.0106L14.7211 12.1403L18.8817 8.39612C19.1541 8.15031 19.2541 7.7669 19.1367 7.41927Z" fill="#F3CD03"/>
</svg>
