<?xml version="1.0" ?><svg style="enable-background:new 0 0 64 64;" version="1.1" viewBox="0 0 64 64" xml:space="preserve" xmlns="http://www.w3.org/2000/svg" xmlns:xlink="http://www.w3.org/1999/xlink"><g id="basketball"/><g id="field"/><g id="basket"/><g id="trophy"/><g id="league_1_"/><g id="player"><g><path d="M30,26c0-1.7-1.3-3-3-3s-3,1.3-3,3c0,0.6,0.4,1,1,1s1-0.4,1-1c0-0.6,0.4-1,1-1s1,0.4,1,1c0,0.6,0.4,1,1,1S30,26.6,30,26z"/><path d="M35,27c0.6,0,1-0.4,1-1c0-0.6,0.4-1,1-1s1,0.4,1,1c0,0.6,0.4,1,1,1s1-0.4,1-1c0-1.7-1.3-3-3-3s-3,1.3-3,3    C34,26.6,34.4,27,35,27z"/><path d="M34.9,33.4c0.2-0.5,0-1.1-0.4-1.3c-0.5-0.2-1.1,0-1.3,0.4C33,32.8,32.5,33,32,33s-1-0.2-1.1-0.4c-0.2-0.5-0.8-0.7-1.3-0.4    c-0.5,0.2-0.7,0.8-0.4,1.3c0.5,1,1.6,1.6,2.9,1.6S34.4,34.4,34.9,33.4z"/><path d="M55.8,50.9c-0.5-4-3.7-7.2-7.7-7.7l-7.3-1c-0.2-0.7-0.6-1.3-1.3-1.7c-0.2-0.1-0.4-0.2-0.6-0.3V37c0-0.1,0-0.1,0-0.2    c2.6-1.8,4.4-4.6,4.9-7.8H44c2.2,0,4-1.8,4-4c0-1.2-0.5-2.2-1.3-2.9c0.7-0.4,1.4-0.8,1.9-1.4c1.5-1.5,2.3-3.5,2.3-5.7l0-11    c0-0.3-0.2-0.6-0.5-0.8C50.3,3,49.9,3,49.6,3.1C45.1,5,40.3,6,35.4,6H28c-6.1,0-11,4.9-11,11v5c0,0.1,0,0.2,0.1,0.3    C16.4,23,16,24,16,25c0,2.2,1.8,4,4,4h0.2c0.5,3.2,2.3,6,4.9,7.8c0,0.1,0,0.1,0,0.2v3.2c-0.2,0.1-0.4,0.2-0.6,0.3    c-0.6,0.4-1.1,1-1.3,1.7l-7.3,1c-4,0.6-7.1,3.7-7.7,7.7l-1.2,9c0,0.3,0,0.6,0.2,0.8S7.7,61,8,61h24h24c0.3,0,0.6-0.1,0.8-0.3    s0.3-0.5,0.2-0.8L55.8,50.9z M32,59h-6.9c0.5-3.4,3.4-6,6.9-6s6.4,2.6,6.9,6H32z M32,51c-4.6,0-8.4,3.5-8.9,8H18V45    c0,0,0-0.1,0-0.1l5.3-0.8c0,0,0.1,0.1,0.1,0.1c2.9,2.1,5.7,3.2,8.6,3.2s5.7-1.1,8.6-3.2c0,0,0.1-0.1,0.1-0.1l5.3,0.8    c0,0,0,0.1,0,0.1v14h-5.1C40.4,54.5,36.6,51,32,51z M25.5,42.2c0.1-0.1,0.5-0.3,0.9-0.1c3.7,1.8,7.5,1.8,11.2,0    c0.4-0.2,0.8,0,0.9,0.1c0.3,0.2,0.5,0.5,0.5,0.8c-4.7,3.3-9.3,3.3-14,0C25,42.6,25.2,42.3,25.5,42.2z M44,27v-4c1.1,0,2,0.9,2,2    S45.1,27,44,27z M19,17c0-5,4-9,9-9h7.4c4.7,0,9.3-0.8,13.6-2.5l0,9.5c0,1.6-0.6,3.1-1.8,4.2c-1.1,1.1-2.5,1.7-4.1,1.8    c-3.6-1.3-7.5-2-11.7-2c-3.9,0-8,0.6-12.5,1.7V17z M18,25c0-1.1,0.9-2,2-2v4C18.9,27,18,26.1,18,25z M22,27.1v-5.1    c7.6-1.6,14.2-1.4,20,0.6v4.4c0,5.4-4.5,9.9-10,9.9S22,32.6,22,27.1z M32,39c1.8,0,3.5-0.4,5-1.1v2.3c-0.1,0-0.2,0-0.3,0.1    c-3.2,1.5-6.3,1.5-9.5,0c-0.1,0-0.2-0.1-0.3-0.1v-2.3C28.5,38.6,30.2,39,32,39z M10.2,51.1c0.4-3,2.8-5.5,5.8-6V59H9.1L10.2,51.1z     M48,59V45.2c3,0.5,5.4,2.9,5.8,6l1,7.9H48z"/></g></g><g id="uniform_1_"/><g id="scoreboard"/><g id="medal"/><g id="shoe_1_"/><g id="ticket_1_"/><g id="event_1_"/><g id="time"/><g id="strategy_1_"/><g id="supporter"/><g id="whistle"/><g id="podium"/><g id="bag"/><g id="bottle"/><g id="badge"/></svg>